<svg xmlns="http://www.w3.org/2000/svg"  viewBox="0 0 24 24" width="48px" height="48px"><path d="M12 3A9 9 0 1 0 12 21A9 9 0 1 0 12 3Z" opacity=".3"/><path d="M10.621,21.421v-6.382H8.278v-2.725h2.343v-2.005c0-2.324,1.421-3.591,3.495-3.591c0.699-0.002,1.397,0.034,2.092,0.105v2.43h-1.428c-1.13,0-1.35,0.534-1.35,1.322v1.735h2.7l-0.351,2.725h-2.365v6.099L10.621,21.421z"/><path d="M12,2C6.477,2,2,6.477,2,12c0,5.523,4.477,10,10,10s10-4.477,10-10C22,6.477,17.523,2,12,2z M12,20c-4.418,0-8-3.582-8-8s3.582-8,8-8s8,3.582,8,8S16.418,20,12,20z"/></svg>